<?xml version="1.0" encoding="utf-8"?>
<!-- Generator: Adobe Illustrator 23.0.1, SVG Export Plug-In . SVG Version: 6.00 Build 0)  -->
<svg version="1.1" id="Layer_1" xmlns="http://www.w3.org/2000/svg" xmlns:xlink="http://www.w3.org/1999/xlink" x="0px" y="0px"
	 viewBox="0 0 618.72 636.52" style="enable-background:new 0 0 618.72 636.52;" xml:space="preserve">
<style type="text/css">
	.st0{fill:#FFFFFF;}
	.st1{fill:#F47D26;}
</style>
<circle class="st0" cx="100.23" cy="26.34" r="9"/>
<path class="st1" d="M580.8,151.68h-59.94c-16.84-65.42-76.22-113.76-146.9-113.76S243.9,86.26,227.06,151.68h-23.14h-52.25
	c0-1-0.07-1.97-0.15-2.95h0.15v-34.97V72.89V37.92C151.68,16.98,134.7,0,113.76,0H37.92C16.98,0,0,16.98,0,37.92
	c0,20.94,16.98,37.92,37.92,37.92h37.92v37.92v34.97h0.15c-0.08,0.98-0.15,1.96-0.15,2.95v24.66v89.04v38.01
	c0,61.58,48.94,111.69,110.04,113.66h18.05h35.6v58.46v2.62v119.95h0.03c0,0.17-0.03,0.34-0.03,0.51
	c0,20.94,16.98,37.92,37.92,37.92c20.94,0,37.92-16.98,37.92-37.92c0-0.17-0.02-0.34-0.03-0.51h0.03V478.14v-2.62v-58.46
	c0-20.94,16.98-37.92,37.92-37.92c20.94,0,37.92,16.98,37.92,37.92v58.46v2.62v119.95h0.03c0,0.17-0.03,0.34-0.03,0.51
	c0,20.94,16.98,37.92,37.92,37.92c20.94,0,37.92-16.98,37.92-37.92c0-0.17-0.02-0.34-0.03-0.51h0.03V478.14v-2.62v-58.46
	c0-20.94,16.98-37.92,37.92-37.92c20.94,0,37.92,16.98,37.92,37.92v58.46v2.62V598.6c0,20.94,16.98,37.92,37.92,37.92
	c20.94,0,37.92-16.98,37.92-37.92V478.14v-2.62v-58.46V265.38V189.6C618.72,168.65,601.74,151.68,580.8,151.68z"/>
<circle class="st0" cx="97.55" cy="40.1" r="14.66"/>
</svg>
