<?xml version="1.0" encoding="utf-8"?>
<!-- Generator: Adobe Illustrator 23.0.1, SVG Export Plug-In . SVG Version: 6.00 Build 0)  -->
<svg version="1.1" id="Layer_1" xmlns="http://www.w3.org/2000/svg" xmlns:xlink="http://www.w3.org/1999/xlink" x="0px" y="0px"
	 viewBox="0 0 556.17 720" style="enable-background:new 0 0 556.17 720;" xml:space="preserve">
<style type="text/css">
	.st0{fill:#73471C;}
</style>
<path class="st0" d="M454.24,347.64H240.87h-40.03h-31.68v-99.95l122.71-122.71c12.37-12.37,12.37-32.43,0-44.8
	c-12.37-12.37-32.43-12.37-44.8,0l-61.59,61.59l-22.76-22.76l58.71-58.71l0,0c12.37-12.37,12.37-32.43,0-44.8
	c-12.37-12.37-32.43-12.37-44.8,0v0l0,0l-58.71,58.71l-43.6-43.6c0,0,0,0,0,0c-12.37-12.37-32.43-12.37-44.8,0
	c-12.37,12.37-12.37,32.43,0,44.8l111.15,111.15l-25.61,25.61l0,0c-0.7,0.7-1.36,1.43-1.99,2.19l-76.15,0
	c-17.49,0-31.68,14.18-31.68,31.68c0,17.49,14.18,31.68,31.68,31.68h0l68.86,0v164.95c0,52.48,42.54,95.03,95.03,95.03h31.62v146.97
	c0,17.49,14.18,31.68,31.68,31.68c17.49,0,31.68-14.18,31.68-31.68V537.7h0.05c0-17.49,14.18-31.68,31.68-31.68
	c17.15,0,31.08,13.64,31.62,30.66v145.99c0,17.49,14.18,31.68,31.68,31.68c17.49,0,31.68-14.18,31.68-31.68V537.7h0.05
	c0-17.49,14.18-31.68,31.68-31.68s31.68,14.18,31.68,31.68v146.97c0,17.49,14.18,31.68,31.68,31.68s31.68-14.18,31.68-31.68V537.7
	v-0.61v-94.41C549.27,390.19,506.72,347.64,454.24,347.64z M116.18,252.52c-7,0-12.67-5.67-12.67-12.67c0-7,5.67-12.67,12.67-12.67
	s12.67,5.67,12.67,12.67C128.85,246.85,123.17,252.52,116.18,252.52z"/>
</svg>
