<?xml version="1.0" encoding="utf-8"?>
<!-- Generator: Adobe Illustrator 23.0.1, SVG Export Plug-In . SVG Version: 6.00 Build 0)  -->
<svg version="1.1" id="Layer_1" xmlns="http://www.w3.org/2000/svg" xmlns:xlink="http://www.w3.org/1999/xlink" x="0px" y="0px"
	 viewBox="0 0 291.32 216.91" style="enable-background:new 0 0 291.32 216.91;" xml:space="preserve">
<style type="text/css">
	.st0{fill:#534DA0;}
</style>
<path class="st0" d="M240.66,0H114.12C87.84,0,66.54,23.37,66.54,52.2v22.12v16.42v31.13c0,8.74-7.09,15.83-15.83,15.83
	c-8.74,0-15.82-7.09-15.82-15.83h-0.02V90.15h-0.04c0-8.74-7.09-15.82-15.82-15.82c-8.74,0-15.83,7.09-15.83,15.82H3.15v31.72
	c0,26.27,21.29,47.56,47.56,47.56s47.56-21.29,47.56-47.56h0c0-8.74,7.09-15.82,15.82-15.82s15.82,7.08,15.82,15.82h0.03v79.21
	c0,8.74,7.09,15.82,15.82,15.82c8.74,0,15.83-7.09,15.83-15.82c0-0.51-0.03-1.02-0.08-1.52v-46.04c0-8.74,7.09-15.82,15.82-15.82
	s15.82,7.09,15.82,15.82v47.56h0.06c0,8.74,7.09,15.82,15.83,15.82c8.74,0,15.82-7.09,15.82-15.82c0-0.4-0.03-0.8-0.06-1.19V171.5
	v-15.02v-2.81h0.01c0-0.05-0.01-0.1-0.01-0.15c0-8.74,7.09-15.82,15.82-15.82c8.74,0,15.82,7.09,15.82,15.82
	c0,0.05-0.01,0.1-0.01,0.15h0.01v2.81v15.02v29.59h0.04c0,8.74,7.09,15.82,15.83,15.82c8.74,0,15.82-7.09,15.82-15.82v-79.21v-10
	V90.74V74.33V50.8C287.49,22.63,266.5,0,240.66,0z M112.27,42.82c4.35,0,7.88,3.53,7.88,7.88s-3.53,7.88-7.88,7.88
	c-4.35,0-7.88-3.53-7.88-7.88S107.92,42.82,112.27,42.82z"/>
</svg>
