<?xml version="1.0" encoding="utf-8"?>
<!-- Generator: Adobe Illustrator 23.0.1, SVG Export Plug-In . SVG Version: 6.00 Build 0)  -->
<svg version="1.1" id="Layer_1" xmlns="http://www.w3.org/2000/svg" xmlns:xlink="http://www.w3.org/1999/xlink" x="0px" y="0px"
	 viewBox="0 0 69.8 69.8" style="enable-background:new 0 0 69.8 69.8;" xml:space="preserve">
<style type="text/css">
	.st0{fill:#2E334E;}
</style>
<path class="st0" d="M34.9,0C15.6,0,0,15.6,0,34.9s15.6,34.9,34.9,34.9s34.9-15.6,34.9-34.9S54.2,0,34.9,0z M57.8,50.4
	c0,1.6-1.3,2.9-2.9,2.9h-40c-1.6,0-2.9-1.3-2.9-2.9v-20l20,10.5c1.4,0.7,2.1,1,2.9,1s1.4-0.3,2.9-1l20-10.5V50.4z M57.8,24.4
	L35,36.4l-22.8-12v-2.2c0-1.6,1.3-2.9,2.9-2.9h40c1.6,0,2.9,1.3,2.9,2.9v2.2H57.8z"/>
</svg>
