<?xml version="1.0" encoding="utf-8"?>
<!-- Generator: Adobe Illustrator 23.0.1, SVG Export Plug-In . SVG Version: 6.00 Build 0)  -->
<svg version="1.1" id="Layer_1" xmlns="http://www.w3.org/2000/svg" xmlns:xlink="http://www.w3.org/1999/xlink" x="0px" y="0px"
	 viewBox="0 0 345.09 720" style="enable-background:new 0 0 345.09 720;" xml:space="preserve">
<style type="text/css">
	.st0{fill:#FAAA42;}
	.st1{fill:#693213;}
</style>
<g>
	<path class="st0" d="M258.8,358.61H114.98V57.47c0-15.89-12.88-28.76-28.76-28.76H28.69c-15.89,0-28.76,12.88-28.76,28.76
		c0,15.89,12.88,28.76,28.76,28.76h28.76v272.38v95.69v2.65v62.6v170.72c0,15.89,12.88,28.76,28.76,28.76
		c15.89,0,28.76-12.88,28.76-28.76V519.55c0-15.89,12.88-28.76,28.76-28.76c15.89,0,28.76,12.88,28.76,28.76v170.72
		c0,15.89,12.88,28.76,28.76,28.76s28.76-12.88,28.76-28.76V519.55c0-15.89,12.88-28.76,28.76-28.76
		c15.89,0,28.76,12.88,28.76,28.76v170.72c0,15.89,12.88,28.76,28.76,28.76s28.76-12.88,28.76-28.76V519.55v-62.6v-2.65v-9.4
		C345.09,397.24,306.45,358.61,258.8,358.61z M65.33,58.22c-3.97,0-7.19-3.22-7.19-7.19c0-3.97,3.22-7.19,7.19-7.19
		c3.97,0,7.19,3.22,7.19,7.19C72.52,55,69.3,58.22,65.33,58.22z"/>
	<g>
		<path class="st1" d="M175.7,427.23c27.6,0,49.98-30.77,49.98-68.72h-99.96C125.72,396.47,148.1,427.23,175.7,427.23z"/>
		<path class="st1" d="M57.45,109.72v63.92c14.29-3.63,24.88-16.54,24.88-31.96C82.33,126.26,71.74,113.35,57.45,109.72z"/>
		<path class="st1" d="M114.98,235.81c-3.03-0.91-6.23-1.42-9.56-1.42c-18.23,0-33.01,14.78-33.01,33.01s14.78,33.01,33.01,33.01
			c3.33,0,6.53-0.5,9.56-1.42V235.81z"/>
		<path class="st1" d="M287.56,599.57v54.62c14.88-0.24,26.88-12.37,26.88-27.31C314.44,611.94,302.44,599.82,287.56,599.57z"/>
		<path class="st1" d="M345.09,438.23c-3.63-1.92-7.66-3.01-11.91-3.01c-15.96,0-28.89,15.03-28.89,33.58
			c0,18.55,12.94,33.58,28.89,33.58c4.25,0,8.27-1.09,11.91-3.01V438.23z"/>
		<path class="st1" d="M114.98,581.46c-10.63,7.15-18.15,24.59-18.15,44.98c0,20.39,7.51,37.83,18.15,44.98V581.46z"/>
		<path class="st1" d="M63.82,392.87c-1.94,0-3.83,0.3-5.68,0.85v111.72c1.85,0.55,3.74,0.85,5.68,0.85
			c18.23,0,33.01-25.39,33.01-56.71C96.83,418.27,82.05,392.87,63.82,392.87z"/>
		<path class="st1" d="M183.47,553.28c-3.88,0-7.58,0.9-10.97,2.52v62.12c3.38,1.62,7.08,2.52,10.97,2.52
			c15.96,0,28.89-15.03,28.89-33.58C212.37,568.31,199.43,553.28,183.47,553.28z"/>
	</g>
	<circle class="st1" cx="87.22" cy="6.47" r="6.47"/>
	<circle class="st1" cx="108.51" cy="12.94" r="6.47"/>
</g>
</svg>
