<?xml version="1.0" encoding="utf-8"?>
<!-- Generator: Adobe Illustrator 23.0.1, SVG Export Plug-In . SVG Version: 6.00 Build 0)  -->
<svg version="1.1" id="Layer_1" xmlns="http://www.w3.org/2000/svg" xmlns:xlink="http://www.w3.org/1999/xlink" x="0px" y="0px"
	 viewBox="0 0 69.8 69.8" style="enable-background:new 0 0 69.8 69.8;" xml:space="preserve">
<style type="text/css">
	.st0{fill:#2E334E;}
</style>
<path class="st0" d="M34.9,0.1C15.6,0.1,0,15.7,0,35c0,15.4,10,28.5,23.9,33.1c1.7,0.3,2.4-0.8,2.4-1.7c0-0.8,0-3.6,0-6.5
	c-9.7,2.1-11.8-4.1-11.8-4.1c-1.6-4-3.9-5.1-3.9-5.1c-3.2-2.2,0.2-2.1,0.2-2.1c3.5,0.2,5.4,3.6,5.4,3.6c3.1,5.3,8.2,3.8,10.2,2.9
	c0.3-2.3,1.2-3.8,2.2-4.7c-7.8-0.9-15.9-3.9-15.9-17.3c0-3.8,1.4-6.9,3.6-9.4c-0.4-0.9-1.6-4.4,0.3-9.2c0,0,2.9-0.9,9.6,3.6
	C29,17.4,32,17,34.9,17c3,0,6,0.4,8.7,1.2c6.7-4.5,9.6-3.6,9.6-3.6c1.9,4.8,0.7,8.4,0.3,9.2c2.2,2.4,3.6,5.6,3.6,9.4
	c0,13.4-8.2,16.4-15.9,17.2c1.3,1.1,2.4,3.2,2.4,6.5c0,4.7,0,8.4,0,9.6c0,0.9,0.6,2,2.4,1.7C59.8,63.5,69.8,50.4,69.8,35
	C69.8,15.7,54.2,0.1,34.9,0.1z"/>
</svg>
