<?xml version="1.0" encoding="utf-8"?>
<!-- Generator: Adobe Illustrator 23.0.1, SVG Export Plug-In . SVG Version: 6.00 Build 0)  -->
<svg version="1.1" id="Layer_1" xmlns="http://www.w3.org/2000/svg" xmlns:xlink="http://www.w3.org/1999/xlink" x="0px" y="0px"
	 viewBox="0 0 70.1 70.1" style="enable-background:new 0 0 70.1 70.1;" xml:space="preserve">
<style type="text/css">
	.st0{fill:#2E334E;}
</style>
<g>
	<path class="st0" d="M35.1,0C15.7,0,0,15.7,0,35.1s15.7,35.1,35.1,35.1s35.1-15.7,35.1-35.1C70.1,15.7,54.4,0,35.1,0z M54.6,52.1
		c0,1.6-1.3,2.8-2.9,2.8H18.4c-1.6,0-2.9-1.3-2.9-2.8V18.4c0-1.6,1.3-2.8,2.9-2.8h33.4c1.6,0,2.9,1.3,2.9,2.8L54.6,52.1L54.6,52.1z"
		/>
	<path class="st0" d="M41.8,30.3c-3.1,0-4.5,1.7-5.3,2.9v0.1l0,0c0,0,0,0,0-0.1v-2.5h-5.9c0.1,1.7,0,17.8,0,17.8h5.9v-9.9
		c0-0.5,0-1.1,0.2-1.4c0.4-1.1,1.4-2.2,3-2.2c2.1,0,3,1.6,3,4v9.5h5.9V38.3C48.6,32.9,45.7,30.3,41.8,30.3z"/>
	<path class="st0" d="M24.4,22.2c-2,0-3.3,1.3-3.3,3.1c0,1.7,1.3,3.1,3.3,3.1l0,0c2.1,0,3.3-1.4,3.3-3.1
		C27.7,23.5,26.4,22.2,24.4,22.2z"/>
	<rect x="21.4" y="30.7" class="st0" width="5.9" height="17.8"/>
</g>
</svg>
