<?xml version="1.0" encoding="utf-8"?>
<!-- Generator: Adobe Illustrator 23.0.1, SVG Export Plug-In . SVG Version: 6.00 Build 0)  -->
<svg version="1.1" id="Layer_1" xmlns="http://www.w3.org/2000/svg" xmlns:xlink="http://www.w3.org/1999/xlink" x="0px" y="0px"
	 viewBox="0 0 720 462.26" style="enable-background:new 0 0 720 462.26;" xml:space="preserve">
<style type="text/css">
	.st0{fill:#A7A9AC;}
</style>
<path class="st0" d="M586.16,12.41v-0.68H288.73c-78.47,0-142.09,63.62-142.09,142.09h-0.55H98.73V74.27
	c0-26.16-21.21-47.36-47.36-47.36S4,48.11,4,74.27v174.28c0,52.32,42.41,94.73,94.73,94.73h47.36h76.59h18.16v71.62
	c0,26.16,21.21,47.36,47.36,47.36c26.16,0,47.36-21.21,47.36-47.36v-71.62c0-1.44,0.09-2.85,0.21-4.25h-0.02
	c0.01-0.1,0.03-0.19,0.04-0.28c0.07-0.68,0.18-1.35,0.28-2.03c0.12-0.86,0.23-1.72,0.39-2.56c0.13-0.69,0.32-1.36,0.48-2.04
	c0.19-0.8,0.38-1.61,0.62-2.4c0.2-0.67,0.44-1.32,0.67-1.98c0.27-0.77,0.53-1.54,0.84-2.29c0.26-0.64,0.55-1.25,0.83-1.88
	c0.34-0.74,0.68-1.48,1.06-2.2c0.31-0.59,0.64-1.17,0.98-1.75c0.41-0.72,0.84-1.42,1.28-2.11c0.35-0.55,0.72-1.08,1.1-1.61
	c0.49-0.69,0.99-1.36,1.51-2.02c0.39-0.49,0.79-0.98,1.21-1.46c0.56-0.65,1.14-1.29,1.74-1.91c0.42-0.44,0.85-0.87,1.29-1.3
	c0.64-0.61,1.29-1.2,1.96-1.78c0.45-0.39,0.89-0.77,1.36-1.14c0.71-0.57,1.44-1.1,2.18-1.63c0.46-0.33,0.93-0.66,1.4-0.98
	c0.78-0.51,1.58-0.99,2.4-1.46c0.48-0.28,0.95-0.56,1.44-0.82c0.85-0.45,1.73-0.86,2.61-1.26c0.48-0.22,0.96-0.45,1.45-0.66
	c0.93-0.38,1.88-0.71,2.83-1.04c0.48-0.16,0.95-0.35,1.43-0.49c1.01-0.31,2.05-0.56,3.1-0.8c0.45-0.1,0.89-0.24,1.35-0.33
	c1.15-0.23,2.33-0.39,3.51-0.54c0.37-0.05,0.73-0.12,1.1-0.16c1.56-0.15,3.13-0.24,4.73-0.24c0,0,0.01,0,0.01,0c0,0,0.01,0,0.01,0
	c26.16,0,47.36,21.21,47.36,47.36v70.67c0,26.16,21.21,47.36,47.36,47.36c26.16,0,47.36-21.21,47.36-47.36v-71.16
	c0.26-25.93,21.35-46.88,47.34-46.88c26.16,0,47.36,21.21,47.36,47.36v70.67c0,26.16,21.21,47.36,47.36,47.36
	c26.16,0,47.36-21.21,47.36-47.36v-70.67v-1.11V153.82C714.46,80,658.16,19.34,586.16,12.41z M146.09,267.49
	c-10.46,0-18.95-8.48-18.95-18.95c0-10.46,8.48-18.95,18.95-18.95c10.46,0,18.95,8.48,18.95,18.95
	C165.04,259.01,156.55,267.49,146.09,267.49z"/>
</svg>
