<?xml version="1.0" encoding="utf-8"?>
<!-- Generator: Adobe Illustrator 23.0.1, SVG Export Plug-In . SVG Version: 6.00 Build 0)  -->
<svg version="1.1" id="Layer_1" xmlns="http://www.w3.org/2000/svg" xmlns:xlink="http://www.w3.org/1999/xlink" x="0px" y="0px"
	 viewBox="0 0 711.25 685.1" style="enable-background:new 0 0 711.25 685.1;" xml:space="preserve">
<style type="text/css">
	.st0{fill:#FFFFFF;stroke:#000000;stroke-width:16;stroke-miterlimit:10;}
</style>
<g>
	<path d="M170.11,16.61C77.8,16.61,2.98,91.43,2.98,183.74H74.6c0-52.75,42.76-95.51,95.51-95.51s95.51,42.76,95.51,95.51h71.63
		C337.24,91.43,262.42,16.61,170.11,16.61z"/>
	<path class="st0" d="M692.59,313.91c-5.71-73.89-67.41-132.08-142.76-132.08H310.66c0-79.12-64.14-143.26-143.26-143.26
		c-79.12,0-143.26,64.14-143.26,143.26v95.51c0,26.37,21.38,47.75,47.75,47.75c26.37,0,47.75-21.38,47.75-47.75v-95.51
		c0-26.37,21.38-47.75,47.75-47.75c26.37,0,47.75,21.38,47.75,47.75v132.08v113.3v198.58c0,26.37,21.38,47.75,47.75,47.75
		s47.75-21.38,47.75-47.75V427.21c0-26.37,21.38-47.75,47.75-47.75c26.37,0,47.75,21.38,47.75,47.75v198.58
		c0,26.37,21.38,47.75,47.75,47.75s47.75-21.38,47.75-47.75V427.21c0-26.37,21.38-47.75,47.75-47.75
		c26.37,0,47.75,21.38,47.75,47.75v198.58c0,26.37,21.38,47.75,47.75,47.75c26.37,0,47.75-21.38,47.75-47.75V427.21v-113.3H692.59z"
		/>
	<g>
		<polygon points="692.68,517.89 597.18,552.65 597.18,585.76 692.68,551 		"/>
		<polygon points="529.66,577.22 526.58,578.34 529.66,586.8 		"/>
	</g>
	<polygon points="597.18,488.09 597.18,507.48 692.68,490.64 692.68,471.25 	"/>
	<path d="M534.43,183.74v198.65c4.39-2.56,9.23-4,14.33-4c5.1,0,9.94,1.44,14.33,4V183.74H534.43z"/>
	<path d="M263.24,673.55c26.37,0,47.75-21.38,47.75-47.75h-95.51C215.49,652.17,236.87,673.55,263.24,673.55z"/>
	<path d="M454.25,673.55c26.37,0,47.75-21.38,47.75-47.75H406.5C406.5,652.17,427.88,673.55,454.25,673.55z"/>
	<path d="M644.93,673.55c26.37,0,47.75-21.38,47.75-47.75h-95.51C597.18,652.17,618.56,673.55,644.93,673.55z"/>
	<path d="M693.65,322.51l-107.67,73.73c4.05,5.46,7.24,11.64,9.24,18.38l98.43-67.4V322.51z"/>
	<path d="M455.66,176.96l43.52,246.79l4.81-0.85c0.44-14.47,7.28-27.31,17.83-35.78l-37.06-210.17H455.66z"/>
	<path d="M393.47,179.89l-35.44,200.98c0.13,0,0.26-0.02,0.39-0.02c10.12,0,19.48,3.17,27.21,8.53l36.94-209.49H393.47z"/>
	<polygon points="501.67,486.39 405.82,494.78 405.82,526.01 501.67,517.62 	"/>
	<polygon points="501.67,564.13 405.82,554.44 405.82,572.56 501.67,582.25 	"/>
	<polygon points="216.33,455.56 312.93,447.11 310.02,413.81 216.33,422 	"/>
	<rect x="215.91" y="497.96" width="95.51" height="28.65"/>
	<polygon points="214.19,558.07 214.19,577.47 309.82,594.33 313.14,575.52 	"/>
	<path d="M323.41,397.68L215.16,268.66v53.49L310.6,435.9c-0.2-1.77-0.32-3.57-0.32-5.39C310.28,417.77,315.29,406.24,323.41,397.68
		z"/>
	<path d="M216.93,186.07c0,2.56-0.26,5.04-0.64,7.49l106.19-18.72l-5.4-30.64l-106.15,18.72
		C214.74,169.78,216.93,177.67,216.93,186.07z"/>
	<path d="M208.04,152.89l84.35-70.78l-14.73-17.56l-87.91,73.77C196.99,141.6,203.26,146.64,208.04,152.89z"/>
	<circle cx="62.27" cy="198.54" r="19.1"/>
	<path d="M166.78,131.68c7.11,0,13.84,1.6,19.9,4.39l18.92-107.31l-23.77-4.19l-18.92,107.31
		C164.19,131.78,165.48,131.68,166.78,131.68z"/>
	<path d="M141.18,138.51L122.52,32.67l-24.45,4.31l23.04,130.69C123.85,155.56,131.17,145.19,141.18,138.51z"/>
	<path d="M358.41,377.36c1.19,0,2.35,0.09,3.52,0.18l-6.79-194.57l-31.73,1.11l7.07,202.36
		C338.34,380.75,347.97,377.36,358.41,377.36z"/>
	<path d="M625.76,203.41l-65.03,178.66c9.84,2.55,18.47,8.11,24.78,15.7l63.61-174.76L625.76,203.41z"/>
	<path d="M596.67,423.1c0.58,2.97,0.9,6.04,0.9,9.18c0,3.35-0.37,6.61-1.02,9.77v12.3l97.11-8.5v-31.23L596.67,423.1z"/>
	<path d="M501.67,437.07l-95.86-9.37v18.78l95.45,9.33c-0.41-1.45-0.69-2.93-0.69-4.45c0-2,0.38-3.96,1.1-5.84V437.07z"/>
</g>
</svg>
